<svg width="24" height="24" viewBox="0 0 24 24" fill="none" xmlns="http://www.w3.org/2000/svg">
<path fill-rule="evenodd" clip-rule="evenodd" d="M14.781 1.91918C12.3354 1.47453 9.82971 1.47453 7.38412 1.91918C6.5577 2.06944 5.80266 2.36646 5.14535 2.79373C4.48784 3.22113 3.9336 3.77538 3.5062 4.43288C3.07892 5.09019 2.78191 5.84523 2.63165 6.67166C2.22371 8.9153 2.19003 11.2096 2.5306 13.4616L0.813525 17.4681C0.65668 17.834 0.720067 18.2572 0.97726 18.5612C1.21685 18.8443 1.58794 18.9803 1.95374 18.9189L5.73849 18.2836C6.05867 18.4414 6.39699 18.5718 6.75106 18.6734C6.8859 18.9974 7.04781 19.3044 7.23526 19.5921C7.65361 20.2343 8.19607 20.7755 8.83945 21.1928C9.3637 21.5329 9.95168 21.7883 10.5887 21.9505C10.7333 21.9873 10.8805 22.0194 11.03 22.0465C13.418 22.4797 15.8647 22.4797 18.2527 22.0465C18.3538 22.0282 18.4537 22.0076 18.5525 21.9848C19.2441 21.8254 19.8799 21.5579 20.4427 21.1928C21.0861 20.7755 21.6285 20.2343 22.0469 19.5921C22.4651 18.9502 22.7558 18.2128 22.9028 17.4059C23.301 15.2205 23.3341 12.9858 23.002 10.7922C22.9719 10.5937 22.9389 10.3954 22.9028 10.1976C22.7558 9.39068 22.4651 8.65332 22.0469 8.01134C21.6285 7.36917 21.0861 6.82793 20.4427 6.41063C20.0977 6.18691 19.7252 5.9997 19.329 5.85158C19.1653 5.34129 18.9404 4.86588 18.6589 4.43288C18.2315 3.77537 17.6773 3.22113 17.0198 2.79373C16.3625 2.36646 15.6074 2.06944 14.781 1.91918ZM7.61412 3.18416C9.90762 2.76716 12.2575 2.76716 14.551 3.18416C15.2186 3.30553 15.8121 3.54217 16.3191 3.87171C16.8258 4.20112 17.2515 4.62685 17.581 5.13361C17.9105 5.64056 18.1471 6.23408 18.2685 6.90165C18.6855 9.19515 18.6855 11.545 18.2685 13.8385C18.1471 14.5061 17.9105 15.0996 17.581 15.6066C17.2515 16.1133 16.8258 16.5391 16.3191 16.8685C15.8121 17.198 15.2186 17.4347 14.551 17.556C12.2575 17.973 9.90762 17.973 7.61412 17.556C7.07532 17.4581 6.58497 17.2851 6.14969 17.049C6.02361 16.9807 5.87829 16.9564 5.73684 16.9802L2.16446 17.5798L3.7851 13.7983C3.83303 13.6865 3.84824 13.5633 3.82896 13.4432C3.481 11.2755 3.50355 9.06354 3.89662 6.90165C4.018 6.23408 4.25464 5.64056 4.58418 5.13361C4.91359 4.62685 5.33932 4.20112 5.84608 3.87171C6.35303 3.54217 6.94655 3.30553 7.61412 3.18416ZM19.6576 7.43535C19.9733 9.637 19.932 11.8769 19.5335 14.0685C19.3832 14.895 19.0862 15.65 18.6589 16.3073C18.2315 16.9648 17.6773 17.5191 17.0198 17.9465C16.3625 18.3737 15.6074 18.6708 14.781 18.821C12.663 19.2061 10.4998 19.2577 8.36966 18.9757C8.68132 19.4297 9.07523 19.8133 9.53909 20.1142C9.6345 20.176 9.7331 20.2346 9.83479 20.2895C10.1925 20.4831 10.5887 20.6328 11.0192 20.732C11.0982 20.7502 11.1783 20.7667 11.2595 20.7814C13.4957 21.1871 15.787 21.1871 18.0232 20.7814C18.1146 20.7649 18.2045 20.7461 18.2929 20.7251C18.7119 20.6259 19.0976 20.4785 19.4472 20.2893C19.5489 20.2343 19.6476 20.1761 19.743 20.1142C20.2357 19.7946 20.6495 19.3817 20.9696 18.8903C21.2898 18.3988 21.5199 17.8231 21.6379 17.1754C21.6612 17.0474 21.6832 16.9193 21.7039 16.7909C22.0206 14.8222 22.0223 12.8159 21.7094 10.847C21.6872 10.7071 21.6633 10.5675 21.6379 10.4281C21.5199 9.78036 21.2898 9.20472 20.9696 8.71315C20.6495 8.22176 20.2357 7.80887 19.743 7.48932C19.7148 7.47103 19.6864 7.45304 19.6576 7.43535Z" fill="white" fill-opacity="0.7"/>
</svg>
