<svg width="20" height="20" viewBox="0 0 20 20" fill="none" xmlns="http://www.w3.org/2000/svg">
<path d="M8.33203 6.34204V9.12231H7.98438C7.41311 8.20791 5.91979 7.38014 4.43652 7.38013C3.68825 7.38013 3.25397 7.7707 3.25391 8.29126C3.25391 8.94199 3.81833 9.46281 5.78906 10.3137C7.87031 11.2114 8.76268 12.0591 8.7627 13.6643C8.7627 15.3963 7.01548 16.5676 4.77051 16.5676C3.43757 16.5676 2.08769 16.1436 1.19238 15.6497L0.952148 16.7415H0.169922V13.6643H0.561523C1.1695 14.8322 2.64227 15.6563 4.16211 15.6565C5.02057 15.6565 5.5526 15.3297 5.55273 14.7258C5.55273 14.0117 5.14476 13.6606 3.25391 12.8831C1.03592 11.9954 0.00017701 10.9814 0 9.46313C0 7.63104 1.54665 6.51594 3.93848 6.51587C5.35471 6.51587 6.52734 6.94977 7.3291 7.36353L7.5498 6.34204H8.33203ZM14.499 3.26001C16.9676 3.26001 19.6092 4.17094 19.6094 6.51001C19.6094 7.78793 18.8661 8.7326 17.8154 9.41333C19.1796 10.1608 20 11.089 20 12.5471C19.9998 14.8294 18.0081 16.5208 14.6289 16.5208C11.9869 16.5207 9.08496 15.3931 9.08496 13.054C9.08499 11.7159 10.0559 10.7318 11.1768 9.97095C10.066 9.27691 9.42881 8.41575 9.42871 7.07446C9.42871 4.64848 11.55 3.26001 14.499 3.26001ZM12.6475 10.7043C12.2772 11.3317 12.0742 12.0998 12.0742 12.9241C12.0743 14.6123 13.0244 15.6963 14.542 15.6965C15.9263 15.6965 16.7069 14.8327 16.707 13.7483C16.707 12.1465 14.8457 11.5387 13.8916 11.1917C13.448 11.0282 13.031 10.8678 12.6475 10.7043ZM14.542 4.1272C13.328 4.12738 12.811 4.9921 12.8076 5.9397C12.8077 7.58462 14.6687 8.11569 15.7529 8.5061C15.9531 8.57951 16.1468 8.65299 16.3369 8.72974C16.5671 8.15911 16.751 7.45436 16.751 6.63013C16.7509 4.27776 15.2359 4.1272 14.542 4.1272Z" fill="white"/>
</svg>
