<svg width="24" height="24" viewBox="0 0 24 24" fill="none" xmlns="http://www.w3.org/2000/svg">
<path d="M13.5 16.25C13.5 17.5625 13.3 17.75 12 17.75C10.7 17.75 10.5 17.5391 10.5 16.25C10.5 14.95 10.7266 14.75 12 14.75C13.3 14.75 13.5 14.95 13.5 16.25Z" fill="#171A26"/>
<path fill-rule="evenodd" clip-rule="evenodd" d="M12 1C9.10051 1 6.75 3.35051 6.75 6.25V9.75H5.5C4.11929 9.75 3 10.8693 3 12.25V20.25C3 21.6307 4.11929 22.75 5.5 22.75H18.5C19.8807 22.75 21 21.6307 21 20.25V12.25C21 10.8693 19.8807 9.75 18.5 9.75H8.25V6.25C8.25 4.17893 9.92893 2.5 12 2.5C14.0711 2.5 15.75 4.17893 15.75 6.25H17.25C17.25 3.35051 14.8995 1 12 1ZM4.5 12.25C4.5 11.6977 4.94772 11.25 5.5 11.25H18.5C19.0523 11.25 19.5 11.6977 19.5 12.25V20.25C19.5 20.8023 19.0523 21.25 18.5 21.25H5.5C4.94772 21.25 4.5 20.8023 4.5 20.25V12.25Z" fill="#171A26"/>
</svg>
